<svg width="28" height="28" viewBox="0 0 28 28" fill="none" xmlns="http://www.w3.org/2000/svg">
<g id="calendar 1" clip-path="url(#clip0_10_1027)">
<g id="Group">
<g id="Group_2">
<path id="Vector" d="M7.12474 0.25C6.5823 0.25 6.14258 0.68972 6.14258 1.23216V3.19643H8.10685V1.23216C8.10685 0.68972 7.66713 0.25 7.12474 0.25Z" fill="white"/>
</g>
</g>
<g id="Group_3">
<g id="Group_4">
<path id="Vector_2" d="M20.8747 0.25C20.3323 0.25 19.8926 0.68972 19.8926 1.23216V3.19643H21.8568V1.23216C21.8569 0.68972 21.4172 0.25 20.8747 0.25Z" fill="white"/>
</g>
</g>
<g id="Group_5">
<g id="Group_6">
<path id="Vector_3" d="M24.8036 3.19641H21.8571V7.125C21.8571 7.66744 21.4174 8.10716 20.875 8.10716C20.3325 8.10716 19.8928 7.66744 19.8928 7.125V3.19641H8.10712V7.125C8.10712 7.66744 7.6674 8.10716 7.12496 8.10716C6.58252 8.10716 6.1428 7.66744 6.1428 7.125V3.19641H3.19643C1.56916 3.19641 0.25 4.51557 0.25 6.14284V24.8036C0.25 26.4308 1.56916 27.75 3.19643 27.75H24.8036C26.4308 27.75 27.75 26.4308 27.75 24.8036V6.14284C27.75 4.51557 26.4308 3.19641 24.8036 3.19641ZM25.7857 24.8036C25.7857 25.346 25.346 25.7857 24.8035 25.7857H3.19643C2.65399 25.7857 2.21427 25.346 2.21427 24.8036V12.0357H25.7857V24.8036Z" fill="white"/>
</g>
</g>
<g id="Group_7">
<g id="Group_8">
<path id="Vector_4" d="M8.10756 14H6.1433C5.60085 14 5.16113 14.4397 5.16113 14.9822C5.16113 15.5246 5.60085 15.9643 6.1433 15.9643H8.10756C8.65001 15.9643 9.08973 15.5246 9.08973 14.9822C9.08973 14.4397 8.65001 14 8.10756 14Z" fill="white"/>
</g>
</g>
<g id="Group_9">
<g id="Group_10">
<path id="Vector_5" d="M14.9826 14H13.0183C12.4759 14 12.0361 14.4397 12.0361 14.9822C12.0361 15.5246 12.4759 15.9643 13.0183 15.9643H14.9826C15.525 15.9643 15.9647 15.5246 15.9647 14.9822C15.9647 14.4397 15.525 14 14.9826 14Z" fill="white"/>
</g>
</g>
<g id="Group_11">
<g id="Group_12">
<path id="Vector_6" d="M21.8576 14H19.8933C19.3509 14 18.9111 14.4397 18.9111 14.9822C18.9111 15.5246 19.3509 15.9643 19.8933 15.9643H21.8576C22.4 15.9643 22.8397 15.5246 22.8397 14.9822C22.8397 14.4397 22.3999 14 21.8576 14Z" fill="white"/>
</g>
</g>
<g id="Group_13">
<g id="Group_14">
<path id="Vector_7" d="M8.10756 17.9286H6.1433C5.60085 17.9286 5.16113 18.3683 5.16113 18.9108C5.16113 19.4532 5.60085 19.8929 6.1433 19.8929H8.10756C8.65001 19.8929 9.08973 19.4532 9.08973 18.9108C9.08973 18.3683 8.65001 17.9286 8.10756 17.9286Z" fill="white"/>
</g>
</g>
<g id="Group_15">
<g id="Group_16">
<path id="Vector_8" d="M14.9826 17.9286H13.0183C12.4759 17.9286 12.0361 18.3683 12.0361 18.9108C12.0361 19.4532 12.4759 19.8929 13.0183 19.8929H14.9826C15.525 19.8929 15.9647 19.4532 15.9647 18.9108C15.9647 18.3683 15.525 17.9286 14.9826 17.9286Z" fill="white"/>
</g>
</g>
<g id="Group_17">
<g id="Group_18">
<path id="Vector_9" d="M21.8576 17.9286H19.8933C19.3509 17.9286 18.9111 18.3683 18.9111 18.9108C18.9111 19.4532 19.3509 19.8929 19.8933 19.8929H21.8576C22.4 19.8929 22.8397 19.4532 22.8397 18.9108C22.8397 18.3683 22.3999 17.9286 21.8576 17.9286Z" fill="white"/>
</g>
</g>
<g id="Group_19">
<g id="Group_20">
<path id="Vector_10" d="M8.10756 21.8572H6.1433C5.60085 21.8572 5.16113 22.2969 5.16113 22.8393C5.16113 23.3818 5.60085 23.8214 6.1433 23.8214H8.10756C8.65001 23.8214 9.08973 23.3817 9.08973 22.8393C9.08973 22.2968 8.65001 21.8572 8.10756 21.8572Z" fill="white"/>
</g>
</g>
<g id="Group_21">
<g id="Group_22">
<path id="Vector_11" d="M14.9826 21.8572H13.0183C12.4759 21.8572 12.0361 22.2969 12.0361 22.8393C12.0361 23.3818 12.4759 23.8215 13.0183 23.8215H14.9826C15.525 23.8215 15.9647 23.3818 15.9647 22.8393C15.9647 22.2969 15.525 21.8572 14.9826 21.8572Z" fill="white"/>
</g>
</g>
<g id="Group_23">
<g id="Group_24">
<path id="Vector_12" d="M21.8576 21.8572H19.8933C19.3509 21.8572 18.9111 22.2969 18.9111 22.8393C18.9111 23.3818 19.3509 23.8215 19.8933 23.8215H21.8576C22.4 23.8215 22.8397 23.3818 22.8397 22.8393C22.8397 22.2969 22.3999 21.8572 21.8576 21.8572Z" fill="white"/>
</g>
</g>
</g>
<defs>
<clipPath id="clip0_10_1027">
<rect width="27.5" height="27.5" fill="white" transform="translate(0.25 0.25)"/>
</clipPath>
</defs>
</svg>
